<svg width="770" height="467" viewBox="0 0 770 467" fill="none" xmlns="http://www.w3.org/2000/svg">
<g filter="url(#filter0_d_119_2)">
<path d="M322.177 1.51718C316.516 3.49229 308.118 11.3927 306.702 16.0954C306.042 18.3526 304.815 20.2337 303.683 20.7039C266.506 35.7524 243.294 47.3209 227.159 58.7013C221.498 62.6515 221.309 62.7456 216.968 61.711C211.401 60.4883 206.778 62.2753 204.891 66.5077L203.664 69.2352L199.89 67.5422C194.606 65.1909 193.19 65.285 190.926 68.3887L189.039 71.0222L181.679 70.0817C177.621 69.6114 160.543 69.1411 143.653 69.1411C110.061 69.1411 92.2279 70.4579 67.2231 74.8784C52.1259 77.6059 51.2767 77.6059 43.0676 76.5713C34.4811 75.5367 30.8955 76.4773 25.6115 81.4621C10.9861 95.0997 3.81491 120.682 4.00363 158.021C4.2867 194.608 9.00457 222.823 20.6105 257.435C27.1212 276.716 32.4052 289.225 46.4645 318.287C64.1093 354.968 83.8301 379.233 103.645 388.639C109.401 391.272 111.099 391.648 118.176 391.648C125.347 391.648 126.951 391.366 132.519 388.544C137.425 386.099 140.256 383.842 145.068 378.387C148.465 374.531 151.201 371.051 151.201 370.58C151.201 370.204 155.542 366.912 160.826 363.432C174.791 354.309 193.379 340.201 206.212 329.197C212.251 323.93 217.629 319.604 218.101 319.416C219.422 319.039 231.971 344.152 234.519 352.24C238.482 364.749 239.52 377.352 237.633 391.742C236.784 398.42 235.557 407.543 234.991 412.058C233.104 427.012 235.085 433.878 241.218 433.314C243.766 433.031 245.181 431.527 253.013 419.958C261.505 407.355 269.62 397.762 271.696 397.762C273.489 397.762 274.715 402.746 275.659 413.374C276.602 425.037 277.546 427.576 281.037 428.423C284.717 429.363 287.642 426.636 295.851 414.597C303.683 403.123 308.967 397.197 310.477 398.138C310.949 398.42 311.892 402.182 312.458 406.414C314.628 421.745 317.742 426.918 324.725 426.918C330.952 426.918 340.671 421.369 350.107 412.434L354.164 408.578L353.409 415.161C352.277 425.319 352.466 434.912 353.976 436.7C355.58 438.581 359.637 438.675 362.279 436.794C363.317 436.041 364.544 433.972 364.827 432.091C365.865 426.542 373.602 412.34 378.32 407.355C384.264 401.053 391.341 397.762 398.984 397.762C405.306 397.762 407.476 396.445 406.438 393.247C405.117 388.921 394.361 387.792 386.623 391.178C378.037 394.846 371.054 401.994 364.355 414.033L361.524 418.924L362.185 414.221C362.468 411.587 363.506 406.038 364.544 401.9C367.374 389.955 366.808 386.475 361.996 386.475C359.26 386.475 358.222 387.886 356.618 394.282C355.391 398.796 354.353 400.489 350.673 403.687C343.03 410.459 335.859 415.538 331.707 417.137C328.027 418.547 327.555 418.547 325.385 417.137C322.554 415.35 321.422 411.587 320.196 399.266C319.158 389.015 318.403 387.604 313.402 386.852C310.571 386.381 309.628 386.852 305.664 390.237C303.211 392.495 297.927 399.078 294.059 404.91C290.19 410.835 286.604 415.632 286.132 415.632C284.623 415.632 284.245 414.033 283.302 404.345C282.264 393.435 281.037 390.331 277.357 388.544C271.318 385.629 265.091 390.049 255.183 404.251C247.446 415.444 243.577 420.522 243.011 420.052C242.822 419.864 243.86 414.221 245.276 407.543C247.446 397.009 247.823 393.341 247.729 379.421C247.635 358.354 245.653 350.453 235.651 330.514C231.783 322.707 228.291 315.089 228.008 313.49C227.536 310.763 228.103 310.01 238.105 300.605C244.049 295.056 249.333 290.541 249.899 290.541C250.465 290.541 251.503 291.2 252.164 291.858C254.617 294.868 259.146 295.432 265.091 293.551C268.11 292.517 270.658 291.858 270.847 291.952C271.035 292.14 271.696 294.962 272.451 298.254C279.244 330.514 308.306 352.898 356.146 362.398C372.187 365.596 382.66 366.724 404.079 367.383C414.176 367.665 422.668 368.229 422.951 368.605C423.234 368.887 424.461 369.922 425.782 370.768C431.066 374.342 439.746 371.427 442.388 365.219C446.068 356.378 437.104 347.067 427.857 350.077C423.8 351.394 420.12 356.378 420.12 360.329C420.12 363.056 420.026 363.15 416.629 362.586C414.647 362.304 407.287 361.833 400.305 361.457C381.245 360.611 366.808 357.789 343.219 350.547C322.271 344.057 309.533 337.286 298.493 326.846C287.737 316.688 282.264 306.154 280.565 292.893C279.716 285.839 279.716 285.745 282.736 280.76C284.434 277.938 286.321 273.33 286.982 270.414C288.114 265.147 288.208 265.053 290.19 266.464C317.648 286.121 357.278 301.075 385.68 302.58C391.624 302.862 395.87 303.521 397.286 304.461C399.078 305.59 400.305 305.684 405.306 304.649C418.327 302.204 430.311 293.927 437.765 282.265C449.843 263.454 455.882 228.749 451.824 201.191C451.069 196.301 450.22 189.529 449.843 186.143C448.239 170.06 439.18 129.993 433.236 112.311C428.329 97.6391 409.929 60.5823 401.154 47.4149C393.323 35.7524 379.075 20.798 368.978 13.744C352.371 2.08149 334.066 -2.7152 322.177 1.51718ZM328.593 8.75924C325.196 9.98193 320.95 11.6749 319.158 12.6154C316.138 14.2143 315.949 14.2143 317.176 12.7095C319.818 9.60572 326.989 6.69008 332.368 6.69008C333.689 6.69008 332.085 7.53656 328.593 8.75924ZM344.917 9.98193C344.257 10.17 343.124 10.17 342.558 9.98193C341.898 9.69977 342.37 9.51166 343.691 9.51166C345.012 9.51166 345.483 9.69977 344.917 9.98193ZM328.405 13.9321C326.046 14.8727 322.743 16.5656 321.139 17.6943C319.535 18.8229 318.214 19.2932 318.214 18.7288C318.214 17.6002 329.254 12.1451 331.424 12.1451C332.179 12.2392 330.858 12.9916 328.405 13.9321ZM360.297 17.0359C364.449 19.7634 370.299 24.0898 373.224 26.6293L378.697 31.2379L373.036 33.9654C366.336 37.1632 360.958 42.9004 359.448 48.5436L358.41 52.4938L347.842 42.242C341.992 36.6929 333.877 29.9211 329.82 27.1936C325.763 24.4661 322.366 22.2088 322.271 22.1147C320.856 20.8921 345.578 12.6154 351.805 12.2392C352.371 12.1451 356.146 14.4024 360.297 17.0359ZM291.794 32.4605C289.152 35 285.755 37.5394 284.434 38.1978C283.019 38.8561 276.98 41.5837 271.035 44.2172C258.958 49.5782 248.956 55.1273 237.444 62.6515C233.292 65.379 229.518 67.6363 229.141 67.6363C228.858 67.6363 227.442 66.9779 226.121 66.0374L223.762 64.5326L231.122 59.8299C235.179 57.1964 244.238 52.1176 251.22 48.4495C263.958 41.8658 295.757 27.1936 296.323 27.6639C296.512 27.852 294.436 30.0152 291.794 32.4605ZM383.038 36.1286C383.132 36.5989 380.867 38.3859 377.848 39.9848C371.715 43.2766 366.902 48.8257 365.204 54.7511C363.789 59.7359 363.694 59.8299 362.185 57.7608C359.448 53.9986 366.336 42.8064 374.734 37.4453C378.98 34.8119 382.377 34.2476 383.038 36.1286ZM388.227 41.9599C389.171 42.8064 389.926 43.7469 389.926 44.029C389.926 44.3112 387.378 44.5934 384.264 44.5934L378.603 44.6874L382.094 42.5242C386.34 39.9848 386.057 39.9848 388.227 41.9599ZM279.433 45.722C278.773 46.6625 276.602 49.296 274.715 51.6473C268.959 58.7953 260.184 72.2449 253.957 83.4372L248.106 94.0651L245.37 88.9863C243.86 86.2588 240.275 80.8977 237.444 77.0416C234.613 73.2795 232.632 69.8936 233.009 69.6114C243.483 62.3693 275.376 45.2517 280.377 44.2172C280.565 44.1231 280.094 44.8755 279.433 45.722ZM393.794 48.9198C394.361 50.0484 394.455 50.7068 393.983 50.4246C392.473 49.4841 378.886 52.3997 373.979 54.657C371.337 55.9738 369.167 56.8202 369.167 56.6321C369.167 56.444 369.828 55.0332 370.582 53.6224C372.187 50.4246 378.792 48.3555 391.53 47.0387C392.19 47.0387 393.134 47.8852 393.794 48.9198ZM401.437 59.7359C409.929 72.433 424.838 104.975 432.764 128.112C436.255 138.082 441.162 160.466 444.276 179.465C446.54 193.385 446.729 196.865 446.257 211.349C446.068 220.284 445.597 227.808 445.408 227.996C444.653 228.749 431.537 224.799 425.404 221.977C422.102 220.472 417.761 217.745 415.685 215.958L411.911 212.478L411.345 199.122C409.269 151.437 395.587 105.822 373.508 73.0914C365.581 61.3348 365.959 62.0872 367.94 61.4288C368.884 61.0526 371.809 59.8299 374.357 58.7013C376.999 57.4786 382.283 55.7856 386.151 54.9392C390.02 54.0927 393.7 53.2462 394.172 53.0581C396.153 52.3997 397.097 53.3403 401.437 59.7359ZM352.088 57.6667C354.259 60.3002 347.087 64.9088 331.424 70.8341C298.116 83.4372 270.941 94.4413 262.354 98.7678C256.976 101.495 253.013 103 252.636 102.436C251.692 101.025 252.636 100.085 259.524 95.4759C271.979 87.2933 303.494 73.2795 334.255 62.3693C340.765 60.018 346.899 57.7608 347.937 57.2905C350.579 56.1619 350.862 56.1619 352.088 57.6667ZM357.089 63.592C358.033 64.4385 358.788 65.4731 358.788 65.8493C358.788 66.8839 335.293 86.8231 317.742 100.743C266.412 141.28 267.827 140.245 266.884 137.612C266.317 135.919 266.506 134.79 267.355 134.038C268.11 133.379 282.264 122.093 298.871 108.831C326.612 86.8231 349.824 67.4482 353.032 63.592C354.636 61.6169 354.919 61.6169 357.089 63.592ZM220.554 68.2006C222.347 69.0471 225.932 71.8687 228.574 74.4081C233.292 79.2048 241.784 91.1495 241.784 93.0306C241.784 93.5949 242.539 95.1938 243.483 96.6046C250.182 106.668 254.806 116.826 262.354 137.706C267.355 151.437 276.225 183.98 279.15 199.122L279.716 202.32L272.356 201.662C268.205 201.285 264.808 200.909 264.713 200.721C264.525 200.627 262.543 193.009 260.184 183.697C256.032 167.05 248.673 143.913 242.822 129.241C235.274 110.43 222.252 88.2339 212.722 77.8881C209.986 74.9724 207.816 72.1508 207.816 71.5865C207.816 71.1163 208.759 69.5174 209.797 68.1066C212.062 65.285 214.515 65.285 220.554 68.2006ZM200.739 72.527C201.399 73.2795 201.116 73.3735 199.984 72.9033C199.041 72.6211 197.153 72.3389 195.927 72.3389C194.417 72.3389 193.757 71.9627 194.228 71.3044C194.889 70.1757 199.324 71.0222 200.739 72.527ZM130.16 72.9033C129.877 73.1854 129.027 73.2795 128.367 72.9973C127.612 72.7152 127.895 72.433 128.933 72.433C129.971 72.3389 130.537 72.6211 130.16 72.9033ZM110.156 74.6903C95.7191 76.1951 80.905 78.6405 73.0733 80.8977C67.978 82.3085 66.1852 82.4966 62.7883 81.5561C60.5238 80.9918 58.9197 80.2394 59.3915 79.7691C60.9012 78.3583 103.362 73.5616 114.874 73.5616C120.441 73.4676 119.78 73.6557 110.156 74.6903ZM186.868 77.5118C187.151 77.6999 186.963 80.1453 186.491 82.8729C185.642 87.6695 185.547 87.8577 182.339 88.1398C176.395 88.516 149.125 93.1246 137.519 95.57C115.345 100.273 117.893 100.273 107.325 96.0402C102.135 93.877 92.8884 90.5852 86.8495 88.6101C80.7163 86.635 75.7153 84.7539 75.7153 84.4718C75.621 82.5907 109.59 78.1702 133.179 77.1356C149.786 76.3832 186.019 76.6654 186.868 77.5118ZM207.533 78.5464C209.892 79.0167 219.044 90.6792 224.894 100.743C237.444 122.187 249.239 153.13 256.976 185.202C258.58 191.692 260.09 197.711 260.279 198.558C260.656 199.969 260.184 200.251 257.637 200.251C255.938 200.251 253.957 199.875 253.296 199.404C252.636 199.028 250.748 194.043 249.239 188.4C234.613 136.107 218.478 101.307 203.947 90.5852C197.153 85.6004 193.851 86.4469 190.36 93.9711C188.85 97.1689 188.85 97.1689 189.322 88.7982C189.982 76.4773 189.699 76.7594 198.286 77.5118C202.249 77.794 206.4 78.2643 207.533 78.5464ZM38.7272 88.1398C36.7457 92.09 35.8965 95.3819 35.6134 100.179C35.236 106.386 35.1416 106.668 32.5939 107.233C25.5171 108.643 19.2895 114.569 14.383 124.444L11.5522 129.993V126.137C11.5522 123.974 12.8732 118.049 14.4773 113.064C20.988 92.8425 28.914 82.8729 38.5385 82.6847H41.4635L38.7272 88.1398ZM52.3147 85.0361L54.768 85.6944L51.1824 90.7733C49.2009 93.5949 46.9363 98.5797 45.9927 101.872C44.3886 107.609 44.2943 107.797 41.841 107.233C38.7272 106.386 38.3497 104.129 40.3313 96.6046C42.2184 89.2684 45.8983 83.3431 48.1629 84.0015C49.0121 84.2836 50.8993 84.7539 52.3147 85.0361ZM68.6385 93.4068C87.6987 105.822 107.797 129.617 120.724 155.105C125.159 163.946 134.311 185.39 133.84 185.861C133.745 185.955 131.952 185.484 129.971 184.732C124.498 182.757 119.969 183.039 115.157 185.484L110.911 187.648L109.684 184.262C107.042 176.644 95.9078 155.482 89.6802 145.982C80.6219 132.345 66.8457 118.613 56.1833 112.782C48.8234 108.737 48.5404 108.455 49.0121 105.728C50.2388 98.7678 56.4664 88.3279 59.2971 88.3279C60.1463 88.3279 64.2981 90.5852 68.6385 93.4068ZM186.114 93.5008C186.114 96.4165 187.812 96.0402 155.73 99.6143C141.388 101.119 128.272 102.718 126.48 103C124.309 103.376 123.743 103.188 124.781 102.624C126.857 101.307 176.867 91.8079 184.509 91.2436C185.642 91.1495 186.114 91.8079 186.114 93.5008ZM201.022 92.4662C206.4 95.2878 212.911 103.659 219.988 116.826C223.479 123.316 223.762 124.162 222.252 124.726C221.309 125.009 216.497 126.89 211.59 128.865C206.117 131.028 200.55 132.533 197.436 132.721L192.247 133.003L191.681 127.36C189.605 108.267 192.152 91.1495 197.059 91.1495C197.814 91.1495 199.607 91.7138 201.022 92.4662ZM186.491 107.985C186.868 112.594 187.718 120.024 188.378 124.538L189.605 132.721L186.019 132.157C181.207 131.404 171.299 126.89 156.391 118.707C149.692 115.039 141.199 110.618 137.519 108.925C131.481 106.01 131.103 105.728 133.745 105.446C135.349 105.257 146.955 103.941 159.693 102.436C172.432 101.025 183.472 99.8024 184.321 99.7083C185.642 99.6143 186.019 101.119 186.491 107.985ZM50.7106 115.979C67.2231 124.162 81.9429 141.938 96.0022 170.624C110.25 199.78 121.573 237.684 126.291 272.201C128.744 290.165 128.65 316.406 126.008 328.163C123.271 340.578 120.629 347.161 115.534 353.839C107.419 364.279 100.909 365.69 88.4536 359.576C82.509 356.661 78.7347 353.839 70.62 346.033C60.5238 336.251 60.335 335.969 54.0131 322.99C31.556 276.716 19.1952 239.377 12.9676 199.31C10.6087 184.544 10.1369 159.902 11.9297 149.744C15.2322 130.652 22.309 117.014 30.8955 113.064C35.3303 111.089 42.9733 112.217 50.7106 115.979ZM232.726 146.264C233.104 147.111 233.198 147.863 233.104 147.957C228.386 149.744 163.94 182.757 156.957 186.895C151.484 190.093 146.389 192.632 145.634 192.538C142.237 191.88 144.313 189.623 154.221 183.697C164.6 177.396 228.952 144.854 231.028 144.76C231.688 144.76 232.443 145.418 232.726 146.264ZM131.481 189.058C136.859 190.94 136.293 191.316 128.272 191.316C122.234 191.316 119.875 191.692 117.421 193.197C114.685 194.796 114.213 194.89 113.458 193.667C112.043 191.41 112.326 190.845 115.629 189.435C119.308 187.836 127.14 187.648 131.481 189.058ZM122.139 199.686C117.61 204.013 116.95 204.107 115.912 200.627C115.345 198.934 115.912 198.37 118.837 197.147C120.818 196.301 123.366 195.642 124.498 195.642C126.291 195.548 125.913 196.206 122.139 199.686ZM137.803 197.429C137.897 198.276 136.765 199.404 134.972 200.157C133.368 200.909 129.31 204.201 126.102 207.493C120.913 212.666 120.158 213.136 119.592 211.537C118.742 208.998 122.234 204.577 129.027 199.592C134.689 195.454 137.236 194.796 137.803 197.429ZM199.795 199.78C209.137 200.533 223.573 201.85 231.877 202.696C260.656 205.424 265.94 205.894 276.225 206.834C281.981 207.399 292.36 208.433 299.343 209.186C310.76 210.408 326.14 211.819 380.207 216.71C389.076 217.462 398.324 218.121 400.682 218.121H405.023V222.353C405.023 224.704 404.929 226.586 404.834 226.586C404.645 226.586 395.682 225.363 384.736 223.858C347.748 218.685 224.423 204.859 187.529 201.756C178.188 201.003 165.449 200.063 159.222 199.686C152.994 199.404 147.521 198.652 146.955 198.182C145.729 196.865 177.244 197.899 199.795 199.78ZM140.822 205.518C146.106 219.155 154.598 267.028 156.863 295.244C157.712 306.154 157.146 328.915 155.825 338.508C154.787 345.75 150.73 359.764 149.503 360.517C148.276 361.269 135.727 354.591 131.481 350.923L127.423 347.443L129.782 339.919C133.934 326.47 134.689 320.45 134.689 299.947C134.594 275.681 132.047 257.717 124.592 229.125L121.667 218.027L125.819 213.7C130.065 209.374 137.897 203.166 139.218 203.072C139.595 203.072 140.35 204.201 140.822 205.518ZM263.204 214.829C264.147 215.487 267.45 235.332 268.676 247.747C272.073 281.042 265.374 297.784 252.636 287.72C248.767 284.71 241.501 275.775 239.237 271.355C237.821 268.721 238.01 268.815 242.351 272.577C245.842 275.681 247.446 276.434 249.711 276.245C253.296 275.869 256.316 271.637 257.731 265.053C259.712 255.93 258.486 231.382 255.372 216.428L254.711 213.324L258.863 213.982C261.128 214.359 263.109 214.735 263.204 214.829ZM281.792 217.18C282.264 217.651 282.358 228.467 282.075 241.352C281.603 267.122 280.943 271.073 275.376 279.725C271.979 284.804 268.299 288.566 269.431 285.651C273.772 273.988 273.017 243.797 267.638 218.215L266.978 215.017L273.96 215.675C277.829 216.052 281.32 216.71 281.792 217.18ZM427.574 227.15C430.499 228.278 435.5 229.783 438.803 230.442C442.388 231.194 444.653 232.135 444.653 232.887C444.653 233.828 443.143 234.016 437.859 233.545C429.745 232.793 421.158 230.254 415.685 226.774C412.288 224.61 411.628 223.764 411.628 221.225V218.121L417.006 221.601C419.931 223.388 424.744 225.927 427.574 227.15ZM418.233 232.511C425.498 235.991 437.01 238.248 441.256 237.119L444.464 236.179L443.993 239.659C443.238 245.49 443.332 245.396 435.878 245.396C428.424 245.396 420.214 243.609 414.647 240.788C411.251 239.001 411.156 238.906 411.439 234.204C411.628 231.476 412.1 229.501 412.383 229.595C412.76 229.783 415.402 231.1 418.233 232.511ZM404.457 237.59C404.174 240.129 403.608 242.386 403.23 242.763C402.381 243.609 393.134 246.054 348.503 257.153C309.344 266.934 297.267 269.38 318.403 263.266C340.671 256.871 381.434 242.763 397.003 236.179C400.682 234.674 403.985 233.357 404.362 233.263C404.834 233.169 404.834 235.144 404.457 237.59ZM424.555 247.841C428.046 248.594 433.425 249.158 436.35 248.97C442.955 248.594 443.049 248.688 438.992 260.727C434.84 272.954 430.877 279.819 424.177 286.591C417.761 293.081 407.948 298.442 403.419 297.878C400.211 297.501 400.211 297.878 403.985 283.487C406.816 272.483 408.986 260.256 410.213 248.5L410.873 242.669L414.553 244.456C416.535 245.49 421.064 246.995 424.555 247.841ZM255.372 258.752C254.617 265.523 251.315 272.107 248.673 272.483C246.219 272.86 240.841 269.097 238.482 265.429C236.878 263.078 236.878 262.89 239.048 261.197C241.879 259.034 248.106 255.742 251.22 254.707C255.844 253.297 256.032 253.485 255.372 258.752ZM232.632 270.602C222.441 275.775 216.308 288.096 216.308 303.521V309.822L201.494 322.143C188.378 332.959 172.149 345.844 161.392 353.933C156.014 357.883 156.674 354.685 162.335 348.572C164.883 345.844 172.149 336.815 178.471 328.445C194.134 307.565 206.967 292.328 220.931 278.032C231.688 267.028 232.821 266.088 233.953 267.593C235.085 269.097 234.896 269.474 232.632 270.602ZM306.608 267.593C306.325 267.875 305.476 267.969 304.815 267.687C304.06 267.404 304.343 267.122 305.381 267.122C306.419 267.028 306.985 267.31 306.608 267.593ZM242.351 280.854C243.389 282.359 244.521 283.958 244.898 284.522C245.464 285.557 227.914 300.887 226.215 300.887C224.989 300.887 226.876 292.799 229.235 287.908C231.405 283.299 236.784 278.315 239.426 278.315C239.992 278.315 241.313 279.443 242.351 280.854ZM238.01 296.843C228.291 306.06 226.121 307.753 226.876 305.59C227.348 304.179 245.653 287.908 246.88 287.814C247.352 287.72 243.389 291.858 238.01 296.843ZM218.195 313.961C218.195 316.312 186.302 342.553 168.28 355.25C156.768 363.244 154.976 364.279 154.976 363.15C154.976 362.68 159.977 358.542 166.11 353.933C177.244 345.656 199.324 328.069 210.647 318.381C216.78 313.208 218.195 312.362 218.195 313.961ZM140.161 360.235C143.37 361.739 146.578 362.962 147.238 362.962C147.804 362.962 148.371 363.338 148.371 363.809C148.371 365.784 146.106 365.784 140.256 363.903C132.896 361.457 124.026 354.027 125.064 351.3C125.63 349.795 126.291 350.077 130.065 353.557C132.424 355.626 136.953 358.73 140.161 360.235ZM132.613 364.279C134.783 365.596 138.557 367.1 141.105 367.759C143.558 368.323 145.54 369.076 145.54 369.358C145.54 369.64 143.747 372.179 141.671 375.001C136.104 382.243 128.084 386.005 118.176 386.005C112.42 385.911 110.156 385.441 105.91 383.372C99.399 380.174 86.0003 369.452 80.5275 362.962L76.4702 358.165L86.0946 362.962C98.5498 369.17 102.985 369.828 110.156 366.348C112.987 364.937 116.95 361.928 118.837 359.67L122.422 355.626L125.536 358.824C127.234 360.517 130.348 362.962 132.613 364.279Z" fill="#fff1d1"/>
<path d="M42.1241 159.808C39.0103 161.031 34.4812 166.862 32.4053 172.411C21.6486 201.191 36.4627 266.464 61.1843 299.382C81.3768 326.093 99.2104 321.673 103.268 289.036C107.136 257.529 91.9449 203.731 71.375 176.455C60.7126 162.253 50.4276 156.422 42.1241 159.808Z" fill="#fff1d1"/>
<path d="M518.441 355.156C516.742 356.566 516.27 358.447 515.421 367.665C514.855 373.59 513.723 381.396 512.968 385.064C512.213 388.638 511.647 392.024 511.647 392.589C511.647 393.059 510.609 391.272 509.477 388.45C508.344 385.629 506.268 382.525 504.853 381.49C502.494 379.703 501.739 379.609 496.361 380.644C488.624 382.055 484.566 385.064 475.697 395.598C459.656 414.691 439.558 428.705 431.16 426.542C428.329 425.883 426.819 422.874 425.97 416.572C425.31 411.681 425.498 408.578 427.197 393.717L427.952 387.416H425.404C423.989 387.416 421.913 388.074 420.686 388.827C416.818 391.366 415.874 395.316 415.874 409.142C415.874 421.463 415.968 422.027 418.705 427.388C424.744 439.145 435.217 439.427 450.692 428.423C453.9 426.166 457.486 423.156 458.712 421.839C460.033 420.522 461.354 419.394 461.732 419.394C462.015 419.394 462.581 422.121 462.77 425.413C463.336 434.066 465.034 435.759 472.489 435.101C475.885 434.912 480.32 433.69 483.434 432.185C490.511 428.893 500.607 420.334 506.363 412.622C509.005 409.142 511.269 406.508 511.458 406.697C511.647 406.885 512.307 409.706 513.062 413.092C513.723 416.478 515.044 420.522 515.893 422.215C517.591 425.413 522.404 428.799 525.423 428.799C527.782 428.799 536.746 423.438 542.785 418.453L547.314 414.691L546.842 418.453C546.182 423.25 548.729 430.21 551.843 432.279C557.033 435.665 568.167 431.527 579.018 422.309L585.529 416.76L587.51 419.77C590.53 424.284 595.059 426.166 601.758 425.789C609.212 425.319 615.629 422.215 625.819 413.939L633.84 407.543V415.726C633.84 422.403 634.123 424.284 635.633 425.883C636.67 427.012 637.992 427.858 638.558 427.858C640.634 427.858 649.22 419.488 656.58 410.365C664.883 400.019 667.525 397.762 671.205 397.762C674.508 397.762 675.168 398.984 677.15 408.484C680.264 423.814 684.227 428.329 693.851 427.576C699.513 427.106 704.797 424.849 711.968 419.77C714.421 417.983 716.591 416.572 716.78 416.572C716.969 416.572 717.346 418.359 717.629 420.522C718.384 426.26 721.97 429.175 727.159 428.423C732.066 427.576 743.106 422.591 748.012 418.923C754.051 414.315 753.957 414.315 753.485 419.206C752.541 429.081 750.277 440.367 748.484 443.847C745.748 449.302 743.483 450.431 735.746 450.431C730.462 450.431 728.009 449.867 723.479 447.798C720.366 446.293 716.497 443.941 714.893 442.625C711.213 439.521 709.798 439.427 709.798 442.343C709.798 445.164 718.101 453.065 724.423 456.074C731.122 459.366 741.124 459.836 746.408 457.109C757.259 451.56 761.034 439.145 764.619 397.009C765.657 384.5 765.657 383.466 764.053 381.773C761.317 378.763 755.844 377.54 751.126 378.857C743.766 381.02 738.765 384.782 725.367 398.138C709.609 413.939 702.532 418.641 695.266 418.265C689.133 417.889 687.435 415.632 686.208 405.756C684.887 395.504 682.906 390.519 679.603 388.827C672.338 385.064 666.016 388.356 653.844 401.994C648.843 407.637 644.219 412.434 643.747 412.622C642.049 413.186 642.709 406.603 645.163 398.138C647.805 389.203 647.899 385.817 645.54 384.312C642.804 382.619 639.313 385.817 637.52 391.648C636.104 395.975 634.783 397.762 630.16 401.9C621.29 409.612 613.647 414.597 608.175 416.196C595.625 419.864 591.096 412.81 595.248 396.257C596.757 390.519 596.757 389.861 595.248 386.851C593.455 382.995 590.718 381.773 584.019 381.773C575.81 381.773 568.922 385.723 556.561 397.573C541.464 412.058 527.405 420.899 522.687 419.112C520.705 418.359 519.762 409.894 520.422 398.326C520.8 390.708 525.234 364.937 527.216 358.259C528.348 354.497 521.932 352.24 518.441 355.156ZM500.796 388.827C502.683 390.614 503.155 392.024 503.155 395.88C503.155 398.514 503.626 401.43 504.193 402.37C505.608 404.533 503.155 408.013 494.946 415.255C482.773 425.883 472.772 429.928 471.451 424.567C470.224 419.488 476.829 406.885 486.831 395.128C490.794 390.425 495.889 386.475 497.776 386.475C498.154 386.475 499.569 387.51 500.796 388.827ZM756.316 387.792C757.165 390.049 754.995 403.781 753.296 406.697C752.447 408.295 748.673 411.399 744.804 413.751C739.048 417.23 737.067 417.889 733.009 417.983C728.669 417.983 728.197 417.795 727.914 415.726C727.254 411.587 733.293 401.524 741.03 393.811C747.729 387.134 748.673 386.475 752.07 386.475C754.429 386.475 756.033 386.945 756.316 387.792ZM585.623 396.351C585.529 404.157 583.359 409.048 577.225 415.161C571.375 421.087 561.185 425.883 557.505 424.473C554.674 423.344 555.617 416.196 559.486 408.672C565.525 397.291 575.338 389.015 582.415 389.485L585.717 389.767L585.623 396.351Z" fill="#fff1d1"/>
</g>
<defs>
<filter id="filter0_d_119_2" x="0" y="0.000244141" width="769.338" height="466.884" filterUnits="userSpaceOnUse" color-interpolation-filters="sRGB">
<feFlood flood-opacity="0" result="BackgroundImageFix"/>
<feColorMatrix in="SourceAlpha" type="matrix" values="0 0 0 0 0 0 0 0 0 0 0 0 0 0 0 0 0 0 127 0" result="hardAlpha"/>
<feOffset dy="4"/>
<feGaussianBlur stdDeviation="2"/>
<feComposite in2="hardAlpha" operator="out"/>
<feColorMatrix type="matrix" values="0 0 0 0 0 0 0 0 0 0 0 0 0 0 0 0 0 0 0.25 0"/>
<feBlend mode="normal" in2="BackgroundImageFix" result="effect1_dropShadow_119_2"/>
<feBlend mode="normal" in="SourceGraphic" in2="effect1_dropShadow_119_2" result="shape"/>
</filter>
</defs>
</svg>
